<svg xmlns="http://www.w3.org/2000/svg" xmlns:xlink="http://www.w3.org/1999/xlink" viewBox="0 0 848.01 382.73"><defs><style>.cls-1,.cls-15,.cls-2{fill:none;}.cls-1,.cls-15{stroke:#8fc9cc;stroke-linecap:round;stroke-linejoin:round;}.cls-1{stroke-width:2.5px;}.cls-3,.cls-4,.cls-8{fill:#8fc9cc;}.cls-4,.cls-8{font-size:111.14px;font-family:AvenirNext-UltraLight, Avenir Next;font-weight:100;}.cls-5{letter-spacing:-0.05em;}.cls-6{letter-spacing:-0.02em;}.cls-7{letter-spacing:-0.02em;}.cls-8{letter-spacing:-0.08em;}.cls-9{letter-spacing:-0.08em;}.cls-10{letter-spacing:-0.08em;}.cls-11{letter-spacing:-0.06em;}.cls-12{clip-path:url(#clip-path);}.cls-13{fill:#fffdcf;}.cls-14{clip-path:url(#clip-path-2);}.cls-15{stroke-width:2px;}</style><clipPath id="clip-path" transform="translate(0 76.41)"><circle class="cls-1" cx="409.1" cy="66.23" r="64.98"/></clipPath><clipPath id="clip-path-2" transform="translate(0 76.41)"><circle class="cls-2" cx="440.87" cy="90.05" r="52.92"/></clipPath></defs><title>logo</title><g id="Layer_2" data-name="Layer 2"><g id="Layer_1-2" data-name="Layer 1"><path class="cls-3" d="M335.5,134l9.61-8.68,2.86,3.16-9.61,8.68Z" transform="translate(0 76.41)"/><path class="cls-3" d="M357.55,142.44a2.61,2.61,0,0,0-.31-1.2,2.94,2.94,0,0,0-.82-1,2.59,2.59,0,0,0-1.12-.54,3,3,0,0,0-1.19,0,3.28,3.28,0,0,0-1.13.44,3.64,3.64,0,0,0-1,.87,3.54,3.54,0,0,0-.62,1.12,3.15,3.15,0,0,0-.18,1.21,2.83,2.83,0,0,0,.31,1.16,2.92,2.92,0,0,0,.83,1,3.57,3.57,0,0,0,1.16.61,2.56,2.56,0,0,0,1.25.08l.06,3.73a5.59,5.59,0,0,1-2.39-.34A8,8,0,0,1,350,148.2a8.43,8.43,0,0,1-2-2.15,6.62,6.62,0,0,1-1-2.5,6.32,6.32,0,0,1,.14-2.66,7.59,7.59,0,0,1,3.57-4.5,6.4,6.4,0,0,1,2.56-.75,6.82,6.82,0,0,1,2.66.36,8.36,8.36,0,0,1,2.53,1.38,7.64,7.64,0,0,1,1,1,9.61,9.61,0,0,1,.83,1.1,5.85,5.85,0,0,1,.57,1.15,4.52,4.52,0,0,1,.28,1.14Z" transform="translate(0 76.41)"/><path class="cls-3" d="M375.29,155.22l-.23.47c-.08.15-.16.3-.24.43L366.4,152a2.19,2.19,0,0,0-.14,1,2.74,2.74,0,0,0,.29,1,3.38,3.38,0,0,0,.63.88,3.47,3.47,0,0,0,.91.66,3.58,3.58,0,0,0,1.71.42,3.43,3.43,0,0,0,1.46-.37l1.82,3a6.1,6.1,0,0,1-3.06.76,8.12,8.12,0,0,1-3.43-.9,8.32,8.32,0,0,1-2.27-1.63,6.84,6.84,0,0,1-1.45-2.2,6.24,6.24,0,0,1-.42-2.6,7.8,7.8,0,0,1,2.56-5.19,6.42,6.42,0,0,1,2.29-1.3,6.64,6.64,0,0,1,2.6-.27,7.93,7.93,0,0,1,2.69.78,7.14,7.14,0,0,1,2.14,1.6,5.67,5.67,0,0,1,1.22,2.16,6.23,6.23,0,0,1,.22,2.57A8.35,8.35,0,0,1,375.29,155.22ZM372.5,152a2.57,2.57,0,0,0,.2-1.84,2.41,2.41,0,0,0-1.39-1.5,2.94,2.94,0,0,0-1.11-.33,2.81,2.81,0,0,0-1.05.07,2.77,2.77,0,0,0-.92.43,2.41,2.41,0,0,0-.65.74Z" transform="translate(0 76.41)"/><path class="cls-3" d="M403.3,159.14a2.63,2.63,0,0,0-.89-.86,3,3,0,0,0-1.23-.44,2.73,2.73,0,0,0-1.25.13,2.82,2.82,0,0,0-1,.61,3.22,3.22,0,0,0-.73,1,3.66,3.66,0,0,0-.38,1.24,4,4,0,0,0,.06,1.29,3.2,3.2,0,0,0,.48,1.12,2.9,2.9,0,0,0,2.09,1.23,3.65,3.65,0,0,0,1.31-.09,2.39,2.39,0,0,0,1.1-.59l2,3.15a5.65,5.65,0,0,1-2.21,1,8.09,8.09,0,0,1-2.74.12,8.38,8.38,0,0,1-2.79-.81,6.65,6.65,0,0,1-2.13-1.63,6.33,6.33,0,0,1-1.27-2.34,7,7,0,0,1-.22-2.93,7.13,7.13,0,0,1,.9-2.77,6.41,6.41,0,0,1,1.79-2,6.87,6.87,0,0,1,2.46-1.1,8.37,8.37,0,0,1,2.88-.13,7,7,0,0,1,1.36.29,9,9,0,0,1,1.28.51,5.91,5.91,0,0,1,1.09.68,5,5,0,0,1,.84.82Z" transform="translate(0 76.41)"/><path class="cls-3" d="M420.69,158.15a2.86,2.86,0,0,0-.57-.07,3.11,3.11,0,0,0-.53,0,2.86,2.86,0,0,0-1.42.4,3,3,0,0,0-.89.8,3.07,3.07,0,0,0-.54,1.91l.41,6.62-4.26.27-.8-12.91,4.1-.25.11,1.87h.06a4.2,4.2,0,0,1,1.3-1.71,3.61,3.61,0,0,1,2.06-.75,2.9,2.9,0,0,1,.51,0,2,2,0,0,1,.4.05Z" transform="translate(0 76.41)"/><path class="cls-3" d="M440.58,156.87c0,.17.09.34.13.5a4.85,4.85,0,0,1,.11.49l-9.07,2.42a2.2,2.2,0,0,0,.57.87,2.6,2.6,0,0,0,.88.56,3.1,3.1,0,0,0,1.06.24,3.23,3.23,0,0,0,1.11-.11,3.6,3.6,0,0,0,1.56-.8,3.4,3.4,0,0,0,.85-1.24l3.35,1a6,6,0,0,1-1.79,2.59,8,8,0,0,1-3.17,1.59,8.57,8.57,0,0,1-2.78.28,6.53,6.53,0,0,1-2.54-.7,6.13,6.13,0,0,1-2-1.67,7.91,7.91,0,0,1-1.51-5.59,6.48,6.48,0,0,1,.87-2.49,6.72,6.72,0,0,1,1.77-1.92,7.82,7.82,0,0,1,2.54-1.19,7.17,7.17,0,0,1,2.66-.21,5.64,5.64,0,0,1,2.34.81,6.6,6.6,0,0,1,1.87,1.79A8.74,8.74,0,0,1,440.58,156.87Zm-4.22-.57a2.52,2.52,0,0,0-1.06-1.51,2.41,2.41,0,0,0-2-.21,3.16,3.16,0,0,0-1.05.48,3.09,3.09,0,0,0-.74.75,2.53,2.53,0,0,0-.41,1.91Z" transform="translate(0 76.41)"/><path class="cls-3" d="M445.61,149.6a7.52,7.52,0,0,1,1.59-2.69,9.16,9.16,0,0,1,2.5-1.93,8.07,8.07,0,0,1,2.64-.93,4.06,4.06,0,0,1,2.2.25,5.34,5.34,0,0,1,1.9,1.4,12.62,12.62,0,0,1,1.71,2.56l3,5.77-3.45,1.82-.64-1.22-.07,0a3.21,3.21,0,0,1-.74,1.8,5.26,5.26,0,0,1-1.71,1.41,6.93,6.93,0,0,1-1.53.57,4.89,4.89,0,0,1-1.66.11,3.79,3.79,0,0,1-1.58-.58,3.87,3.87,0,0,1-1.29-1.5,3.27,3.27,0,0,1-.37-2.36,4.94,4.94,0,0,1,1.13-2.09,10.73,10.73,0,0,1,2.09-1.81,27.93,27.93,0,0,1,2.48-1.48l-.1-.18a1.59,1.59,0,0,0-1.26-.94,2.86,2.86,0,0,0-1.68.37,4,4,0,0,0-1.37,1.16,5.57,5.57,0,0,0-.84,1.51Zm9.5,1.26-.48.25c-.41.22-.82.46-1.22.72a5.77,5.77,0,0,0-1,.81,2.21,2.21,0,0,0-.57.9,1.21,1.21,0,0,0,.11,1,1.12,1.12,0,0,0,.44.47,1.3,1.3,0,0,0,.57.17,2,2,0,0,0,.63-.08,3.71,3.71,0,0,0,.61-.25,2.44,2.44,0,0,0,1.13-3.59Z" transform="translate(0 76.41)"/><path class="cls-3" d="M482.23,137l-4.85-5.14a6.52,6.52,0,0,0-.78-.72,2.7,2.7,0,0,0-.81-.44,1.7,1.7,0,0,0-.81,0,1.79,1.79,0,0,0-.82.47,1.93,1.93,0,0,0-.53.83,2,2,0,0,0-.06.91,2.51,2.51,0,0,0,.32.93,4.31,4.31,0,0,0,.63.86l4.79,5.09-3.1,2.92-5.07-5.37a3.18,3.18,0,0,0-1.53-1,1.59,1.59,0,0,0-1.47.49,1.81,1.81,0,0,0-.59,1.67,3.36,3.36,0,0,0,.95,1.82l4.81,5.11-3.12,2.94-8.88-9.42,3-2.84,1.23,1.31,0,0a4.47,4.47,0,0,1-.13-1,3.82,3.82,0,0,1,.14-1.08,5,5,0,0,1,.48-1.1,5.19,5.19,0,0,1,3-2.27,3.88,3.88,0,0,1,2.23.15,4.87,4.87,0,0,1,.11-2.31,4.71,4.71,0,0,1,1.39-2.13,4.66,4.66,0,0,1,1.94-1.18,4.28,4.28,0,0,1,1.91-.08,5,5,0,0,1,1.75.71,7.11,7.11,0,0,1,1.46,1.18l5.49,5.83Z" transform="translate(0 76.41)"/><text class="cls-4" transform="translate(0 185.16)"><tspan class="cls-5">C</tspan><tspan class="cls-6" x="74.71" y="0">O</tspan><tspan class="cls-7" x="168.91" y="0">O</tspan><tspan x="263.27" y="0">L</tspan></text><text class="cls-8" transform="translate(501.62 185.16)">M<tspan class="cls-9" x="91.48" y="0">O</tspan><tspan class="cls-10" x="179.01" y="0">O</tspan><tspan class="cls-11" x="266.71" y="0">N</tspan></text><g class="cls-12"><circle class="cls-13" cx="409.68" cy="142.63" r="52.92"/><g class="cls-14"><line class="cls-15" x1="365.4" y1="53.96" x2="544.01" y2="321.2"/><line class="cls-15" x1="376.72" y1="46.4" x2="555.33" y2="313.64"/><line class="cls-15" x1="388.04" y1="38.84" x2="566.64" y2="306.07"/><line class="cls-15" x1="399.35" y1="31.27" x2="577.96" y2="298.51"/><line class="cls-15" x1="410.67" y1="23.71" x2="589.28" y2="290.95"/><line class="cls-15" x1="421.99" y1="16.15" x2="600.59" y2="283.38"/><line class="cls-15" x1="433.3" y1="8.58" x2="611.91" y2="275.82"/><line class="cls-15" x1="444.62" y1="1.02" x2="623.23" y2="268.25"/><line class="cls-15" x1="274.87" y1="114.47" x2="453.48" y2="381.71"/><line class="cls-15" x1="286.19" y1="106.91" x2="464.79" y2="374.14"/><line class="cls-15" x1="297.5" y1="99.34" x2="476.11" y2="366.58"/><line class="cls-15" x1="308.82" y1="91.78" x2="487.43" y2="359.02"/><line class="cls-15" x1="320.14" y1="84.22" x2="498.74" y2="351.45"/><line class="cls-15" x1="331.45" y1="76.65" x2="510.06" y2="343.89"/><line class="cls-15" x1="342.77" y1="69.09" x2="521.38" y2="336.33"/><line class="cls-15" x1="354.09" y1="61.53" x2="532.69" y2="328.76"/><line class="cls-15" x1="538.54" y1="57.7" x2="371.17" y2="332.11"/><line class="cls-15" x1="550.17" y1="64.79" x2="382.79" y2="339.2"/><line class="cls-15" x1="561.79" y1="71.88" x2="394.41" y2="346.29"/><line class="cls-15" x1="573.41" y1="78.96" x2="406.04" y2="353.38"/><line class="cls-15" x1="585.03" y1="86.05" x2="417.66" y2="360.46"/><line class="cls-15" x1="596.65" y1="93.14" x2="429.28" y2="367.55"/><line class="cls-15" x1="608.27" y1="100.23" x2="440.9" y2="374.64"/><line class="cls-15" x1="619.89" y1="107.32" x2="452.52" y2="381.73"/><line class="cls-15" x1="445.58" y1="1" x2="278.21" y2="275.41"/><line class="cls-15" x1="457.2" y1="8.09" x2="289.83" y2="282.5"/><line class="cls-15" x1="468.82" y1="15.18" x2="301.45" y2="289.59"/><line class="cls-15" x1="480.44" y1="22.26" x2="313.07" y2="296.67"/><line class="cls-15" x1="492.06" y1="29.35" x2="324.69" y2="303.76"/><line class="cls-15" x1="503.68" y1="36.44" x2="336.31" y2="310.85"/><line class="cls-15" x1="515.3" y1="43.53" x2="347.93" y2="317.94"/><line class="cls-15" x1="526.92" y1="50.61" x2="359.55" y2="325.03"/></g></g><circle class="cls-1" cx="409.1" cy="142.63" r="64.98"/></g></g></svg>